{
    "asset" : {
        "generator" : "Khronos glTF Blender I/O v1.5.17",
        "version" : "2.0"
    },
    "scene" : 0,
    "scenes" : [
        {
            "name" : "Scene",
            "nodes" : [
                0
            ]
        }
    ],
    "nodes" : [
        {
            "mesh" : 0,
            "name" : "Wall"
        }
    ],
    "meshes" : [
        {
            "name" : "Wall",
            "primitives" : [
                {
                    "attributes" : {
                        "POSITION" : 0,
                        "NORMAL" : 1,
                        "TEXCOORD_0" : 2
                    },
                    "indices" : 3
                }
            ]
        }
    ],
    "accessors" : [
        {
            "bufferView" : 0,
            "componentType" : 5126,
            "count" : 1477,
            "max" : [
                1.4999899864196777,
                3.000037670135498,
                1.5
            ],
            "min" : [
                1.2068772315979004,
                3.7670135498046875e-05,
                -1.500000238418579
            ],
            "type" : "VEC3"
        },
        {
            "bufferView" : 1,
            "componentType" : 5126,
            "count" : 1477,
            "type" : "VEC3"
        },
        {
            "bufferView" : 2,
            "componentType" : 5126,
            "count" : 1477,
            "type" : "VEC2"
        },
        {
            "bufferView" : 3,
            "componentType" : 5123,
            "count" : 4056,
            "type" : "SCALAR"
        }
    ],
    "bufferViews" : [
        {
            "buffer" : 0,
            "byteLength" : 17724,
            "byteOffset" : 0
        },
        {
            "buffer" : 0,
            "byteLength" : 17724,
            "byteOffset" : 17724
        },
        {
            "buffer" : 0,
            "byteLength" : 11816,
            "byteOffset" : 35448
        },
        {
            "buffer" : 0,
            "byteLength" : 8112,
            "byteOffset" : 47264
        }
    ],
    "buffers" : [
        {
            "byteLength" : 55376,
            "uri" : "data:application/octet-stream;base64,"
        }
    ]
}
