{
    "asset" : {
        "generator" : "Khronos glTF Blender I/O v1.5.17",
        "version" : "2.0"
    },
    "scene" : 0,
    "scenes" : [
        {
            "name" : "Scene",
            "nodes" : [
                0
            ]
        }
    ],
    "nodes" : [
        {
            "mesh" : 0,
            "name" : "Wall"
        }
    ],
    "meshes" : [
        {
            "name" : "Wall",
            "primitives" : [
                {
                    "attributes" : {
                        "POSITION" : 0,
                        "NORMAL" : 1,
                        "TEXCOORD_0" : 2
                    },
                    "indices" : 3
                }
            ]
        }
    ],
    "accessors" : [
        {
            "bufferView" : 0,
            "componentType" : 5126,
            "count" : 1438,
            "max" : [
                -1.2068774700164795,
                3.000037670135498,
                1.5
            ],
            "min" : [
                -1.4999897480010986,
                3.7670135498046875e-05,
                -1.5
            ],
            "type" : "VEC3"
        },
        {
            "bufferView" : 1,
            "componentType" : 5126,
            "count" : 1438,
            "type" : "VEC3"
        },
        {
            "bufferView" : 2,
            "componentType" : 5126,
            "count" : 1438,
            "type" : "VEC2"
        },
        {
            "bufferView" : 3,
            "componentType" : 5123,
            "count" : 4056,
            "type" : "SCALAR"
        }
    ],
    "bufferViews" : [
        {
            "buffer" : 0,
            "byteLength" : 17256,
            "byteOffset" : 0
        },
        {
            "buffer" : 0,
            "byteLength" : 17256,
            "byteOffset" : 17256
        },
        {
            "buffer" : 0,
            "byteLength" : 11504,
            "byteOffset" : 34512
        },
        {
            "buffer" : 0,
            "byteLength" : 8112,
            "byteOffset" : 46016
        }
    ],
    "buffers" : [
        {
            "byteLength" : 54128,
            "uri" : "data:application/octet-stream;base64,"
        }
    ]
}
