{
    "asset" : {
        "generator" : "Khronos glTF Blender I/O v1.5.17",
        "version" : "2.0"
    },
    "scene" : 0,
    "scenes" : [
        {
            "name" : "Scene",
            "nodes" : [
                0
            ]
        }
    ],
    "nodes" : [
        {
            "mesh" : 0,
            "name" : "Wall"
        }
    ],
    "meshes" : [
        {
            "name" : "Wall",
            "primitives" : [
                {
                    "attributes" : {
                        "POSITION" : 0,
                        "NORMAL" : 1,
                        "TEXCOORD_0" : 2
                    },
                    "indices" : 3
                }
            ]
        }
    ],
    "accessors" : [
        {
            "bufferView" : 0,
            "componentType" : 5126,
            "count" : 1485,
            "max" : [
                1.4864497184753418,
                3.0115535259246826,
                1.728814721107483
            ],
            "min" : [
                -1.7208129167556763,
                0.011553549207746983,
                -1.478446125984192
            ],
            "type" : "VEC3"
        },
        {
            "bufferView" : 1,
            "componentType" : 5126,
            "count" : 1485,
            "type" : "VEC3"
        },
        {
            "bufferView" : 2,
            "componentType" : 5126,
            "count" : 1485,
            "type" : "VEC2"
        },
        {
            "bufferView" : 3,
            "componentType" : 5123,
            "count" : 4056,
            "type" : "SCALAR"
        }
    ],
    "bufferViews" : [
        {
            "buffer" : 0,
            "byteLength" : 17820,
            "byteOffset" : 0
        },
        {
            "buffer" : 0,
            "byteLength" : 17820,
            "byteOffset" : 17820
        },
        {
            "buffer" : 0,
            "byteLength" : 11880,
            "byteOffset" : 35640
        },
        {
            "buffer" : 0,
            "byteLength" : 8112,
            "byteOffset" : 47520
        }
    ],
    "buffers" : [
        {
            "byteLength" : 55632,
            "uri" : "data:application/octet-stream;base64,"
        }
    ]
}
