{
    "asset" : {
        "generator" : "Khronos glTF Blender I/O v1.5.17",
        "version" : "2.0"
    },
    "scene" : 0,
    "scenes" : [
        {
            "name" : "Scene",
            "nodes" : [
                0
            ]
        }
    ],
    "nodes" : [
        {
            "mesh" : 0,
            "name" : "Wall.002"
        }
    ],
    "meshes" : [
        {
            "name" : "Wall.002",
            "primitives" : [
                {
                    "attributes" : {
                        "POSITION" : 0,
                        "NORMAL" : 1,
                        "TEXCOORD_0" : 2
                    },
                    "indices" : 3
                }
            ]
        }
    ],
    "accessors" : [
        {
            "bufferView" : 0,
            "componentType" : 5126,
            "count" : 4354,
            "max" : [
                1.5,
                3.000037670135498,
                1.5
            ],
            "min" : [
                -1.5,
                3.7670135498046875e-05,
                -1.5
            ],
            "type" : "VEC3"
        },
        {
            "bufferView" : 1,
            "componentType" : 5126,
            "count" : 4354,
            "type" : "VEC3"
        },
        {
            "bufferView" : 2,
            "componentType" : 5126,
            "count" : 4354,
            "type" : "VEC2"
        },
        {
            "bufferView" : 3,
            "componentType" : 5123,
            "count" : 12168,
            "type" : "SCALAR"
        }
    ],
    "bufferViews" : [
        {
            "buffer" : 0,
            "byteLength" : 52248,
            "byteOffset" : 0
        },
        {
            "buffer" : 0,
            "byteLength" : 52248,
            "byteOffset" : 52248
        },
        {
            "buffer" : 0,
            "byteLength" : 34832,
            "byteOffset" : 104496
        },
        {
            "buffer" : 0,
            "byteLength" : 24336,
            "byteOffset" : 139328
        }
    ],
    "buffers" : [
        {
            "byteLength" : 163664,
            "uri" : "data:application/octet-stream;base64,"
        }
    ]
}
