{
    "asset" : {
        "generator" : "Khronos glTF Blender I/O v1.5.17",
        "version" : "2.0"
    },
    "scene" : 0,
    "scenes" : [
        {
            "name" : "Scene",
            "nodes" : [
                0
            ]
        }
    ],
    "nodes" : [
        {
            "mesh" : 0,
            "name" : "Wall"
        }
    ],
    "meshes" : [
        {
            "name" : "Wall",
            "primitives" : [
                {
                    "attributes" : {
                        "POSITION" : 0,
                        "NORMAL" : 1,
                        "TEXCOORD_0" : 2
                    },
                    "indices" : 3
                }
            ]
        }
    ],
    "accessors" : [
        {
            "bufferView" : 0,
            "componentType" : 5126,
            "count" : 1487,
            "max" : [
                1.7106248140335083,
                3.0115535259246826,
                1.7288148403167725
            ],
            "min" : [
                -1.4966373443603516,
                0.011553549207746983,
                -1.478446364402771
            ],
            "type" : "VEC3"
        },
        {
            "bufferView" : 1,
            "componentType" : 5126,
            "count" : 1487,
            "type" : "VEC3"
        },
        {
            "bufferView" : 2,
            "componentType" : 5126,
            "count" : 1487,
            "type" : "VEC2"
        },
        {
            "bufferView" : 3,
            "componentType" : 5123,
            "count" : 4056,
            "type" : "SCALAR"
        }
    ],
    "bufferViews" : [
        {
            "buffer" : 0,
            "byteLength" : 17844,
            "byteOffset" : 0
        },
        {
            "buffer" : 0,
            "byteLength" : 17844,
            "byteOffset" : 17844
        },
        {
            "buffer" : 0,
            "byteLength" : 11896,
            "byteOffset" : 35688
        },
        {
            "buffer" : 0,
            "byteLength" : 8112,
            "byteOffset" : 47584
        }
    ],
    "buffers" : [
        {
            "byteLength" : 55696,
            "uri" : "data:application/octet-stream;base64,"
        }
    ]
}
