{
    "asset" : {
        "generator" : "Khronos glTF Blender I/O v1.5.17",
        "version" : "2.0"
    },
    "scene" : 0,
    "scenes" : [
        {
            "name" : "Scene",
            "nodes" : [
                0
            ]
        }
    ],
    "nodes" : [
        {
            "mesh" : 0,
            "name" : "Wall.003"
        }
    ],
    "meshes" : [
        {
            "name" : "Wall.003",
            "primitives" : [
                {
                    "attributes" : {
                        "POSITION" : 0,
                        "NORMAL" : 1,
                        "TEXCOORD_0" : 2
                    },
                    "indices" : 3
                }
            ]
        }
    ],
    "accessors" : [
        {
            "bufferView" : 0,
            "componentType" : 5126,
            "count" : 5822,
            "max" : [
                1.5000001192092896,
                3.000037670135498,
                1.5
            ],
            "min" : [
                -1.5000003576278687,
                3.7670135498046875e-05,
                -1.500000238418579
            ],
            "type" : "VEC3"
        },
        {
            "bufferView" : 1,
            "componentType" : 5126,
            "count" : 5822,
            "type" : "VEC3"
        },
        {
            "bufferView" : 2,
            "componentType" : 5126,
            "count" : 5822,
            "type" : "VEC2"
        },
        {
            "bufferView" : 3,
            "componentType" : 5123,
            "count" : 16224,
            "type" : "SCALAR"
        }
    ],
    "bufferViews" : [
        {
            "buffer" : 0,
            "byteLength" : 69864,
            "byteOffset" : 0
        },
        {
            "buffer" : 0,
            "byteLength" : 69864,
            "byteOffset" : 69864
        },
        {
            "buffer" : 0,
            "byteLength" : 46576,
            "byteOffset" : 139728
        },
        {
            "buffer" : 0,
            "byteLength" : 32448,
            "byteOffset" : 186304
        }
    ],
    "buffers" : [
        {
            "byteLength" : 218752,
            "uri" : "data:application/octet-stream;base64,"
        }
    ]
}
