{
    "asset" : {
        "generator" : "Khronos glTF Blender I/O v1.5.17",
        "version" : "2.0"
    },
    "scene" : 0,
    "scenes" : [
        {
            "name" : "Scene",
            "nodes" : [
                0
            ]
        }
    ],
    "nodes" : [
        {
            "mesh" : 0,
            "name" : "Wall",
            "rotation" : [
                0,
                0.7071068286895752,
                0,
                0.7071068286895752
            ]
        }
    ],
    "meshes" : [
        {
            "name" : "Wall",
            "primitives" : [
                {
                    "attributes" : {
                        "POSITION" : 0,
                        "NORMAL" : 1,
                        "TEXCOORD_0" : 2
                    },
                    "indices" : 3
                }
            ]
        }
    ],
    "accessors" : [
        {
            "bufferView" : 0,
            "componentType" : 5126,
            "count" : 2900,
            "max" : [
                1.4999902248382568,
                3.000037670135498,
                1.5
            ],
            "min" : [
                -1.4999897480010986,
                3.7670135498046875e-05,
                -1.5000004768371582
            ],
            "type" : "VEC3"
        },
        {
            "bufferView" : 1,
            "componentType" : 5126,
            "count" : 2900,
            "type" : "VEC3"
        },
        {
            "bufferView" : 2,
            "componentType" : 5126,
            "count" : 2900,
            "type" : "VEC2"
        },
        {
            "bufferView" : 3,
            "componentType" : 5123,
            "count" : 8112,
            "type" : "SCALAR"
        }
    ],
    "bufferViews" : [
        {
            "buffer" : 0,
            "byteLength" : 34800,
            "byteOffset" : 0
        },
        {
            "buffer" : 0,
            "byteLength" : 34800,
            "byteOffset" : 34800
        },
        {
            "buffer" : 0,
            "byteLength" : 23200,
            "byteOffset" : 69600
        },
        {
            "buffer" : 0,
            "byteLength" : 16224,
            "byteOffset" : 92800
        }
    ],
    "buffers" : [
        {
            "byteLength" : 109024,
            "uri" : "data:application/octet-stream;base64,"
        }
    ]
}
